<?xml version="1.0" encoding="utf-8"?>
<!-- Generator: Adobe Illustrator 18.1.1, SVG Export Plug-In . SVG Version: 6.00 Build 0)  -->
<svg version="1.1" xmlns="http://www.w3.org/2000/svg" xmlns:xlink="http://www.w3.org/1999/xlink" x="0px" y="0px"
	 viewBox="0 0 40.7 21.8" enable-background="new 0 0 40.7 21.8" xml:space="preserve">
<g id="Flat">
	<g>
		<g>
			
				<path fill="none" stroke="#353535" stroke-width="2.8669" stroke-linecap="round" stroke-linejoin="round" stroke-miterlimit="10" d="
				M7.8,1.4c0,4-2.8,7.3-6.3,7.3"/>
			
				<path fill="none" stroke="#353535" stroke-width="2.8669" stroke-linecap="round" stroke-linejoin="round" stroke-miterlimit="10" d="
				M14.1,8.7c-3.5,0-6.3-3.3-6.3-7.3"/>
			
				<path fill="none" stroke="#353535" stroke-width="2.8669" stroke-linecap="round" stroke-linejoin="round" stroke-miterlimit="10" d="
				M20.4,1.4c0,4-2.8,7.3-6.3,7.3"/>
			
				<path fill="none" stroke="#353535" stroke-width="2.8669" stroke-linecap="round" stroke-linejoin="round" stroke-miterlimit="10" d="
				M26.8,8.7c-3.5,0-6.3-3.3-6.3-7.3"/>
		</g>
		<g>
			
				<path fill="none" stroke="#353535" stroke-width="2.8669" stroke-linecap="round" stroke-linejoin="round" stroke-miterlimit="10" d="
				M33,1.4c0,4-2.8,7.3-6.3,7.3"/>
			
				<path fill="none" stroke="#353535" stroke-width="2.8669" stroke-linecap="round" stroke-linejoin="round" stroke-miterlimit="10" d="
				M39.3,8.7c-3.5,0-6.3-3.3-6.3-7.3"/>
			
				<path fill="none" stroke="#353535" stroke-width="2.8669" stroke-linecap="round" stroke-linejoin="round" stroke-miterlimit="10" d="
				M39.3,8.7"/>
		</g>
		<g>
			<g>
				
					<path fill="none" stroke="#353535" stroke-width="2.8669" stroke-linecap="round" stroke-linejoin="round" stroke-miterlimit="10" d="
					M7.8,13.1c0,4-2.8,7.3-6.3,7.3"/>
				
					<path fill="none" stroke="#353535" stroke-width="2.8669" stroke-linecap="round" stroke-linejoin="round" stroke-miterlimit="10" d="
					M14.1,20.4c-3.5,0-6.3-3.3-6.3-7.3"/>
				
					<path fill="none" stroke="#353535" stroke-width="2.8669" stroke-linecap="round" stroke-linejoin="round" stroke-miterlimit="10" d="
					M20.4,13.1c0,4-2.8,7.3-6.3,7.3"/>
				
					<path fill="none" stroke="#353535" stroke-width="2.8669" stroke-linecap="round" stroke-linejoin="round" stroke-miterlimit="10" d="
					M26.8,20.4c-3.5,0-6.3-3.3-6.3-7.3"/>
			</g>
			<g>
				
					<path fill="none" stroke="#353535" stroke-width="2.8669" stroke-linecap="round" stroke-linejoin="round" stroke-miterlimit="10" d="
					M33,13.1c0,4-2.8,7.3-6.3,7.3"/>
				
					<path fill="none" stroke="#353535" stroke-width="2.8669" stroke-linecap="round" stroke-linejoin="round" stroke-miterlimit="10" d="
					M39.3,20.4c-3.5,0-6.3-3.3-6.3-7.3"/>
				
					<path fill="none" stroke="#353535" stroke-width="2.8669" stroke-linecap="round" stroke-linejoin="round" stroke-miterlimit="10" d="
					M39.3,20.4"/>
			</g>
		</g>
	</g>
</g>
<g id="Rollovers" display="none">
</g>
<g id="Layer_3">
</g>
<g id="Layer_4">
</g>
</svg>
