<svg id="Layer_1" data-name="Layer 1" xmlns="http://www.w3.org/2000/svg" viewBox="0 0 1411 297"><defs><style>.cls-1{fill:#353535;}.cls-2{fill:#fff;}</style></defs><title>logo</title><path class="cls-1" d="M1187.7,103.4c-0.7-.7-0.7-1.6-1.6-2.3-1.6-4.6.7-8.6,5.3-8.6h20.8c3,0,4.6,1.6,6.9,3,1.6,1.6,2.3,3,3.9,4.6,13.9,17.8,27.8,35.4,41.7,52.5,1.6,1.6,2.3,3,3.9,4.6,2.3,2.3,3.9,1.6,4.6-1.6V117c0-5.3-.7-8.6-7.6-8.6-0.7,0-2.3,0-3-.7-1.6-.7-3-1.6-3-3V94.8c0-2.3,1.6-3,3.9-3.9,1.6,0,3-.7,4.6-0.7h34.7a3.73,3.73,0,0,1,3.9,3.9V104c0,2.3-1.6,3-3.9,3.9-1.6,0-3,.7-4.6.7a3.73,3.73,0,0,0-3.9,3.9v89.2c0,3-1.6,4.6-4.6,4.6-3.9.7-6.9,0-9.3-3-1.6-1.6-2.3-3-3.9-4.6-16.2-20.1-31.7-41-47.9-60.9l-4.6-4.6c-1.6-1.6-3-.7-3.9,1.6V181c0,6.2.7,6.9,6.9,7.6,4.6,0,7.6,1.6,6.9,7.6v5.3c0,2.3-1.6,3.9-4.6,4.6h-34.7c-6.2,0-7.6-1.6-7.6-7.6v-4.6c0-3,1.6-4.6,4.6-4.6h3c4.6-.7,5.3-1.6,6.2-6.2V114.4c0-3-1.6-4.6-4.6-5.3a10.55,10.55,0,0,1-4.6-.7,5,5,0,0,1-3-1.6C1185.4,107.3,1185.4,105.7,1187.7,103.4Z"/><path class="cls-1" d="M1109,150.6V117.5c0-4.6-.7-7.6-6.9-7.6s-6.9-1.6-6.9-7.6V97c0.7-3,1.6-3.9,4.6-4.6h39.3a3.73,3.73,0,0,1,3.9,3.9v9.3a3.73,3.73,0,0,1-3.9,3.9,10.55,10.55,0,0,0-4.6.7c-3,.7-4.6,1.6-4.6,4.6v71a3.73,3.73,0,0,0,3.9,3.9,10.55,10.55,0,0,1,4.6.7c3,0.7,4.6,1.6,4.6,4.6v8.6a3.73,3.73,0,0,1-3.9,3.9h-36.3c-6.9,0-7.6-1.6-8.6-8.6v-4.6c0.7-3,1.6-3.9,4.6-4.6h4.6c3-.7,4.6-1.6,4.6-5.3v-4.6C1109,170.5,1109,160.5,1109,150.6Z"/><path class="cls-1" d="M1011.1,92.7h37.7c3,0.7,3.9,1.6,4.6,3.9v24.5c-0.7,2.3-1.6,3.9-4.6,4.6h-10c-3,0-4.6-1.6-4.6-5.3v-4.6c0-3-1.6-4.6-4.6-4.6h-24c-2.3,0-3.9,1.6-4.6,4.6V138c0.7,3.9,1.6,5.3,6.2,5.3h23.1c3,0,4.6,1.6,4.6,4.6v7.6c0,2.3-1.6,3.9-3.9,4.6h-24c-3.9,0-5.3,1.6-6.2,5.3v18.5c0,3.9,1.6,5.3,6.2,6.2h4.6c3,0,4.6,1.6,4.6,4.6v8.6c0,3.3-1.6,4.6-4.6,4.6H976.2c-6.2,0-7.6-1.6-7.6-7.6v-4.6c0.7-3,1.6-4.6,4.6-4.6a10.55,10.55,0,0,0,4.6-.7c2.3-.7,3-1.6,3.9-3.9V114.8a3.73,3.73,0,0,0-3.9-3.9,10.55,10.55,0,0,1-4.6-.7c-3-.7-3.9-1.6-4.6-4.6V98c0-3,1.6-4.6,4.6-4.6h4.6C988.7,92.7,1000.3,92.7,1011.1,92.7Z"/><path class="cls-1" d="M844.5,177.4c2.3-.7,3-2.3,4.6-2.3,4.6-.7,6.9,1.6,6.9,6.2v20.8c0,3.9-1.6,5.3-5.3,6.2h-37c-2.3,0-5.3,0-7.6-1.6-1.6-.7-3-1.6-5.3-1.6-0.7.7-.7,1.6-1.6,1.6,0,0.7-.7.7-0.7,1.6H776.1c-4.6,0-6.2-1.6-6.2-6.2v-6.9c0-2.3,1.6-3.9,4.6-4.6h3c3.9-.7,4.6-1.6,5.3-6.2V118.2c0-6.2-.7-6.9-6.9-7.6a5.91,5.91,0,0,1-3-.7c-1.6-.7-3-1.6-3-3V97c0-2.3,1.6-3,3.9-3.9,1.6,0,3-.7,4.6-0.7h74c2.3,0,3,1.6,3.9,3.9V121c-0.7,2.3-1.6,3.9-4.6,4.6H840.8a3.73,3.73,0,0,1-3.9-3.9v-5.3c0-3.9-1.6-5.3-5.3-5.3H809.2c-3.9,0-5.3,1.6-5.3,5.3v19.2c0,3.9,1.6,5.3,5.3,5.3H833c3,0.7,4.6,1.6,4.6,4.6v7.6a3.73,3.73,0,0,1-3.9,3.9H811.3c-6.9,0-7.6.7-7.6,7.6v19.2c0,3,1.6,4.6,4.6,5.3h23.8c3-.7,4.6-1.6,5.3-5.3a18.79,18.79,0,0,1,.7-6.2c0-2.3,1.6-3,3.9-3.9C842.2,174.4,843.8,175.1,844.5,177.4ZM805.2,101h0c-0.7.7,0,.7,0,0.7V101h0Z"/><path class="cls-1" d="M693.4,208.2H670.3c-2.3,0-3.9.7-6.2-.7h-0.7c-3.9,1.6-8.6.7-12.3,0.7h-3c-2.3-.7-3.9-1.6-3.9-3.9v-9.9a3.73,3.73,0,0,1,3.9-3.9,10.55,10.55,0,0,0,4.6-.7c2.3-.7,3.9-1.6,3.9-4.6v-71a3.73,3.73,0,0,0-3.9-3.9,10.55,10.55,0,0,1-4.6-.7c-3-.7-3.9-1.6-4.6-4.6V97.4c0-3,1.6-4.6,4.6-5.3h34.7a18.78,18.78,0,0,1,6.2.7,3.62,3.62,0,0,1,2.3,1.6,1.52,1.52,0,0,1,0,2.3v1.6c1.6,2.3.7,4.6,0.7,7.6a3.73,3.73,0,0,1-3.9,3.9c-1.6,0-3.9,0-5.3.7-3.9,0-4.6,1.6-5.3,5.3v70.1a3.73,3.73,0,0,0,3.9,3.9h22.9c2.3-.7,3.9-1.6,4.6-4.6V179c0-3.9,1.6-5.3,5.3-5.3h8.6c3.3,0,5.3,1.6,5.3,5.3v23.2c0,3.9-1.6,5.3-5.3,5.3h-3.9C709.6,208.2,702,208.2,693.4,208.2Zm-39.3-13.9-1.6,1.6,1.6,1.6c0.7,0,1.6,0,1.6-.7C655.7,195.9,655,195.2,654.1,194.3Zm7.8-75.4c-0.7,0-1.6-.7-2.3-0.7h-0.7a1.72,1.72,0,0,0,1.6,1.6C661,119.5,661.9,118.9,661.9,118.9ZM724.4,182a0.69,0.69,0,0,0-.7-0.7c-0.2,0-.2,0,0.7.7-0.9-.7-0.9,0,0,0h0Z"/><path class="cls-1" d="M497,178.1c0.7-.7.7-1.6,1.6-2.3-3.9-2.3-3.9-2.3-4.6-6.2-0.7-2.3-.7-4.6-1.6-6.2,0-.7.7-2.3,0.7-3a3.62,3.62,0,0,0-1.6-2.3v-1.6a62.38,62.38,0,0,1,2.3-23.8c6.9-22.4,26.1-38.6,50.2-41.7,10-.7,19.2-0.7,28.5,2.3a55.84,55.84,0,0,1,14.6,6.9c3,2.3,6.2,5.3,7.6,9.3a17.44,17.44,0,0,1,2.3,12.3c-1.6,9.3-11.6,13.9-19.2,9.3-3-2.3-5.3-4.6-6.2-8.6v-3.9c0-3-1.6-5.3-4.6-6.9-5.3-2.3-10-2.3-15.5-2.3-22.4.7-36.3,16.9-37.7,36.3-0.7,8.6,0,16.9,3.9,24.8,7.6,14.6,19.2,22.4,36.3,21.5,6.2,0,12.3-1.6,18.5-3.9,4.6-1.6,6.9-4.6,6.2-9.9v-7.6c0-3.9-1.6-5.3-5.3-5.3H554.9a3.73,3.73,0,0,1-3.9-3.9v-8.6c0-2.3,1.6-3.9,4.6-3.9H591c6.9,0,7.6,1.6,7.6,8.6v44c0,6.9-1.6,7.6-8.6,7.6h-4.6a7.09,7.09,0,0,1-6.2-3c-2.3-3-3.9-2.3-6.9-.7a44,44,0,0,1-16.9,5.3C527,213.7,504.6,196.6,497,178.1Z"/><path class="cls-1" d="M371.3,142c-2.3.7-3,2.3-1.6,3a4.42,4.42,0,0,1,2.3,3.9v34c0,6.9.7,7.6,7.6,8.6h1.6c3,0.7,4.6,1.6,5.3,4.6v8.6c0,2.3-1.6,3.9-3.9,4.6H347.9c-6.2,0-7.6-1.6-7.6-7.6v-4.6c0.7-3,1.6-4.6,4.6-4.6a7.72,7.72,0,0,0,3.9-.7c2.3-.7,3.9-1.6,3.9-4.6V120.1c0-6.2-.7-6.9-6.9-7.6a5.91,5.91,0,0,1-3-.7c-1.6-.7-3-1.6-3-3a28.42,28.42,0,0,1,0-10.9c0.7-1.6,1.6-3,3-3,1.6,0,2.3-.7,3.9-0.7h16.2c4.6,0,7.6,1.6,10.9,5.3,6.2,7.6,11.6,15.5,17.8,22.4,8.6,10.9,17.8,22.4,26.1,33.1,1.6,1.6,2.3,3,3.9,4.6s3,0.7,3.9-1.6c0-1.6.7-2.3,0.7-3.9V115.7c-0.7-3-1.6-3.9-4.6-4.6a10.55,10.55,0,0,1-4.6-.7c-3-.7-3.9-1.6-4.6-4.6V97.2c0-2.4,1.6-3.9,4.6-4.6h33.1a10.55,10.55,0,0,1,4.6.7c2.3,0,3,1.6,3.9,3.9v9.3a3.73,3.73,0,0,1-3.9,3.9,10.55,10.55,0,0,0-4.6.7,3.73,3.73,0,0,0-3.9,3.9v89.5a3.73,3.73,0,0,1-3.9,3.9c-3.9.7-6.9,0-9.3-3-1.6-1.6-2.3-3-3.9-4.6-16.2-20.1-31.7-40-47.9-60.9l-4.6-4.6c-1.6-1.6-3-.7-3.9,1.6C371.3,138.1,371.3,139.7,371.3,142Zm-5.6,10.9,1.6,1.6a2.28,2.28,0,0,0,3-.7,5.48,5.48,0,0,0-1.6-4.6c-0.7,0-1.6-.7-1.6,0s0.7,1.6.7,2.3A12,12,0,0,0,365.7,152.9Zm61.8-48.6a0.69,0.69,0,0,0-.7.7c0,0.7,0,.7.7,1.6h0.7A3.22,3.22,0,0,1,427.5,104.3Zm-64.1,46.3c-0.7,0-.7-1,0,0a1.54,1.54,0,0,0-1.6-.7,0.69,0.69,0,0,0,.7.7h0.9Zm-3.7-4h0c-0.7-.7-0.7,0-0.7,0h0.7Z"/><path class="cls-2" d="M276.4,149.6v34.7c0.7,3,1.6,3.9,4.6,4.6h4.6c3,0.7,4.6,1.6,4.6,4.6v8.6c0,3-1.6,4.6-4.6,4.6H250.9c-7.6,0-8.6-1.6-8.6-8.6v-4.6a3.73,3.73,0,0,1,3.9-3.9h4.6c3.9-.7,4.6-1.6,5.3-5.3V114.2a3.73,3.73,0,0,0-3.9-3.9,10.55,10.55,0,0,1-4.6-.7c-3-.7-4.6-1.6-4.6-4.6V96.4c0-3,1.6-3.9,4.6-4.6h34.7c7.6,0,8.6,1.6,8.6,8.6V105c0,2.3-1.6,3.9-3.9,4.6a10.55,10.55,0,0,0-4.6.7c-3.9.7-4.6,1.6-5.3,5.3v4.6C276.4,130.4,276.4,140.4,276.4,149.6Zm-4.6-9.2c-0.7,0-.7-0.7-1.6-0.7l-0.7.7,0.7,0.7C271.1,141.3,271.1,141.3,271.8,140.4Z"/><path class="cls-1" d="M154.7,210.5c-10.9,0-20.8-2.3-30.1-8.6-3-2.3-6.2-4.6-8.6-8.6s-3.9-8.6-3-13.2c0.7-6.9,6.2-10.9,12.3-10.9,6.2,0.7,11.6,5.3,11.6,11.6v3a6.39,6.39,0,0,0,3.9,6.2,32.59,32.59,0,0,0,23.8,0,19.1,19.1,0,0,0,3.9-2.3,12.71,12.71,0,0,0,.7-19.2c-2.3-2.3-5.3-4.6-8.6-5.3-3.9-1.6-7.6-3-11.6-4.6a120.88,120.88,0,0,1-13.9-6.2,79,79,0,0,1-9.3-6.2,24,24,0,0,1-10-19.2,71.36,71.36,0,0,1,.7-12.3c1.6-6.9,5.3-12.3,10.9-16.9a29.61,29.61,0,0,1,16.2-6.9c10-1.6,20.1-1.6,29.4,2.3,4.6,1.6,9.3,3.9,12.3,7.6a21.87,21.87,0,0,1,6.2,12.3v4.6c-0.7,6.9-5.3,10.9-11.6,10.9-7.6,0-11.6-5.3-12.3-10.9v-2.3c-0.7-3.9-1.6-5.3-6.2-6.9-4.6-.7-9.3-1.6-13.9,0-1.6.7-3.9,0.7-5.3,2.3-7.6,4.6-9.3,13.9-2.3,20.1,2.3,1.6,4.6,3,6.9,4.6a40.86,40.86,0,0,0,10,3.9,42.31,42.31,0,0,0,8.6,3c3.9,1.6,6.9,3,10.9,4.6,13.9,7.6,20.1,20.1,16.2,37-1.6,8.6-6.9,14.6-14.6,19.2-6.9,3.9-13.9,5.3-21.5,6.2C157,210.5,156.1,210.5,154.7,210.5Z"/><path class="cls-1" d="M1397.5,13.5v270H13.5V13.5h1384m8-8H5.5v286h1400V5.5h0Z"/><path class="cls-1" d="M1411,297H0V0H1411V297ZM19,278H1392V19H19V278Z"/></svg>