<?xml version="1.0" encoding="utf-8"?>
<!-- Generator: Adobe Illustrator 18.1.0, SVG Export Plug-In . SVG Version: 6.00 Build 0)  -->
<!DOCTYPE svg PUBLIC "-//W3C//DTD SVG 1.1//EN" "http://www.w3.org/Graphics/SVG/1.1/DTD/svg11.dtd">
<svg version="1.1" id="Layer_1" xmlns="http://www.w3.org/2000/svg" xmlns:xlink="http://www.w3.org/1999/xlink" x="0px" y="0px"
	 viewBox="800 1857 1400 286" enable-background="new 800 1857 1400 286" xml:space="preserve">
<g>
	<rect x="804" y="1861" fill="#353535" width="1392" height="278"/>
	<path fill="#353535" d="M2192,1865v270H808v-270H2192 M2200,1857H800v286h1400V1857L2200,1857z"/>
</g>
<path fill="#D68533" d="M1982.2,1954.9c-0.7-0.7-0.7-1.6-1.6-2.3c-1.6-4.6,0.7-8.6,5.3-8.6c6.9,0,13.9,0,20.8,0c3,0,4.6,1.6,6.9,3
	c1.6,1.6,2.3,3,3.9,4.6c13.9,17.8,27.8,35.4,41.7,52.5c1.6,1.6,2.3,3,3.9,4.6c2.3,2.3,3.9,1.6,4.6-1.6c0-1.6,0-3,0-4.6
	c0-11.6,0-22.4,0-34c0-5.3-0.7-8.6-7.6-8.6c-0.7,0-2.3,0-3-0.7c-1.6-0.7-3-1.6-3-3c0-3,0-6.9,0-9.9c0-2.3,1.6-3,3.9-3.9
	c1.6,0,3-0.7,4.6-0.7c10,0,20.1,0,30.1,0c1.6,0,3,0,4.6,0c2.3,0,3.9,1.6,3.9,3.9c0,3,0,6.9,0,9.9c0,2.3-1.6,3-3.9,3.9
	c-1.6,0-3,0.7-4.6,0.7c-2.3,0-3.9,1.6-3.9,3.9c0,2.3,0,3.9,0,6.2c0,25.5,0,51.6,0,77.7c0,1.6,0,3.9,0,5.3c0,3-1.6,4.6-4.6,4.6
	c-3.9,0.7-6.9,0-9.3-3c-1.6-1.6-2.3-3-3.9-4.6c-16.2-20.1-31.7-41-47.9-60.9c-1.6-1.6-3-3-4.6-4.6s-3-0.7-3.9,1.6c0,1.6,0,2.3,0,3.9
	c0,13.9,0,28.5,0,42.3c0,6.2,0.7,6.9,6.9,7.6c4.6,0,7.6,1.6,6.9,7.6c0,1.6,0,3.9,0,5.3c0,2.3-1.6,3.9-4.6,4.6c-1.6,0-2.3,0-3.9,0
	c-10,0-20.1,0-30.1,0c0,0,0,0-0.7,0c-6.2,0-7.6-1.6-7.6-7.6c0-1.6,0-3,0-4.6c0-3,1.6-4.6,4.6-4.6c0.7,0,1.6,0,3,0
	c4.6-0.7,5.3-1.6,6.2-6.2c0-0.7,0-1.6,0-3c0-20.8,0-41,0-61.8c0-1.6,0-2.3,0-3.9c0-3-1.6-4.6-4.6-5.3c-1.6,0-3,0-4.6-0.7
	c-0.7,0-2.3-0.7-3-1.6C1979.9,1958.8,1979.9,1957.2,1982.2,1954.9z"/>
<path fill="#D68533" d="M1903.6,2002.1c0-9.9,0-20.1,0-30.1c0-0.7,0-1.6,0-3c0-4.6-0.7-7.6-6.9-7.6c-6.2,0-6.9-1.6-6.9-7.6
	c0-1.6,0-3.9,0-5.3c0.7-3,1.6-3.9,4.6-4.6c1.6,0,3,0,4.6,0c10,0,20.1,0,30.1,0c1.6,0,3,0,4.6,0c2.3,0,3.9,1.6,3.9,3.9
	c0,3,0,6.2,0,9.3c0,2.3-1.6,3.9-3.9,3.9c-1.6,0-3,0-4.6,0.7c-3,0.7-4.6,1.6-4.6,4.6c0,1.6,0,3,0,4.6c0,20.8,0,41,0,61.8
	c0,1.6,0,3,0,4.6c0,2.3,1.6,3.9,3.9,3.9c1.6,0,3,0,4.6,0.7c3,0.7,4.6,1.6,4.6,4.6c0,3,0,6.2,0,8.6c0,2.3-1.6,3.9-3.9,3.9
	c-1.6,0-2.3,0-3.9,0c-10.9,0-21.5,0-32.4,0c-6.9,0-7.6-1.6-8.6-8.6c0-1.6,0-3,0-4.6c0.7-3,1.6-3.9,4.6-4.6c1.6,0,3,0,4.6,0
	c3-0.7,4.6-1.6,4.6-5.3c0-1.6,0-3,0-4.6C1903.6,2022,1903.6,2012,1903.6,2002.1z"/>
<path fill="#D68533" d="M1805.7,1944.2c10.9,0,21.5,0,32.4,0c1.6,0,3.9,0,5.3,0c3,0.7,3.9,1.6,4.6,3.9c0,0.7,0,1.6,0,3
	c0,6.2,0,12.3,0,18.5c0,0.7,0,1.6,0,3c-0.7,2.3-1.6,3.9-4.6,4.6c-3,0-6.9,0-10,0c-3,0-4.6-1.6-4.6-5.3c0-1.6,0-3,0-4.6
	c0-3-1.6-4.6-4.6-4.6c-2.3,0-4.6,0-6.9,0c-4.6,0-8.6,0-13.2,0c-1.6,0-2.3,0-3.9,0c-2.3,0-3.9,1.6-4.6,4.6c0,0.7,0,2.3,0,3
	c0,5.3,0,10.9,0,16.9c0,0.7,0,1.6,0,2.3c0.7,3.9,1.6,5.3,6.2,5.3c6.2,0,12.3,0,18.5,0c1.6,0,3,0,4.6,0c3,0,4.6,1.6,4.6,4.6
	c0,2.3,0,5.3,0,7.6c0,2.3-1.6,3.9-3.9,4.6c-1.6,0-3,0-4.6,0c-5.3,0-10,0-15.5,0c-1.6,0-2.3,0-3.9,0c-3.9,0-5.3,1.6-6.2,5.3
	c0,6.2,0,12.3,0,18.5c0,3.9,1.6,5.3,6.2,6.2c1.6,0,3,0,4.6,0c3,0,4.6,1.6,4.6,4.6c0,3,0,5.3,0,8.6c0,3.2-1.6,4.6-4.6,4.6
	c-0.7,0-2.3,0-3,0c-10.9,0-21.5,0-32.4,0c-6.2,0-7.6-1.6-7.6-7.6c0-1.6,0-3,0-4.6c0.7-3,1.6-4.6,4.6-4.6c1.6,0,3,0,4.6-0.7
	c2.3-0.7,3-1.6,3.9-3.9c0-1.6,0-3,0-4.6c0-20.8,0-41.7,0-62.5c0-1.6,0-3,0-4.6c0-2.3-1.6-3.9-3.9-3.9c-1.6,0-3,0-4.6-0.7
	c-3-0.7-3.9-1.6-4.6-4.6c0-2.3,0-5.3,0-7.6c0-3,1.6-4.6,4.6-4.6c1.6,0,3,0,4.6,0C1783.2,1944.2,1794.8,1944.2,1805.7,1944.2z"/>
<path fill="#D68533" d="M1639.1,2028.9c2.3-0.7,3-2.3,4.6-2.3c4.6-0.7,6.9,1.6,6.9,6.2c0,6.9,0,13.9,0,20.8c0,3.9-1.6,5.3-5.3,6.2
	c-0.7,0-2.3,0-3,0c-11.6,0-22.4,0-34,0c-2.3,0-5.3,0-7.6-1.6c-1.6-0.7-3-1.6-5.3-1.6c-0.7,0.7-0.7,1.6-1.6,1.6
	c0,0.7-0.7,0.7-0.7,1.6c-7.6,0-14.6,0-22.4,0c-4.6,0-6.2-1.6-6.2-6.2c0-2.3,0-4.6,0-6.9s1.6-3.9,4.6-4.6c0.7,0,2.3,0,3,0
	c3.9-0.7,4.6-1.6,5.3-6.2c0-0.7,0-1.6,0-3c0-20.8,0-41.7,0-62.5v-0.7c0-6.2-0.7-6.9-6.9-7.6c-0.7,0-1.6,0-3-0.7c-1.6-0.7-3-1.6-3-3
	c0-3,0-6.9,0-9.9c0-2.3,1.6-3,3.9-3.9c1.6,0,3-0.7,4.6-0.7c23.1,0,46.3,0,69.4,0c1.6,0,3,0,4.6,0c2.3,0,3,1.6,3.9,3.9
	c0,1.6,0,2.3,0,3.9c0,6.2,0,11.6,0,17.8c0,0.7,0,2.3,0,3c-0.7,2.3-1.6,3.9-4.6,4.6c-3.9,0-6.9,0-10.9,0c-2.3,0-3.9-1.6-3.9-3.9
	c0-1.6,0-3.9,0-5.3c0-3.9-1.6-5.3-5.3-5.3c-7.6,0-15.5,0-22.4,0c-3.9,0-5.3,1.6-5.3,5.3c0,6.2,0,13.2,0,19.2c0,3.9,1.6,5.3,5.3,5.3
	c6.2,0,13.2,0,19.2,0c1.6,0,3,0,4.6,0c3,0.7,4.6,1.6,4.6,4.6c0,2.3,0,5.3,0,7.6c0,2.3-1.6,3.9-3.9,3.9c-1.6,0-3,0-4.6,0
	c-6.2,0-11.6,0-17.8,0c-6.9,0-7.6,0.7-7.6,7.6c0,5.3,0,10.9,0,16.2c0,0.7,0,1.6,0,3c0,3,1.6,4.6,4.6,5.3c0.7,0,1.6,0,3,0
	c6.2,0,12.3,0,18.5,0c0.7,0,1.6,0,2.3,0c3-0.7,4.6-1.6,5.3-5.3c0-2.3,0-3.9,0.7-6.2c0-2.3,1.6-3,3.9-3.9
	C1636.8,2025.9,1638.4,2026.6,1639.1,2028.9z M1599.7,1952.6L1599.7,1952.6c-0.7,0.7,0,0.7,0,0.7
	C1599.7,1952.6,1599.7,1952.6,1599.7,1952.6C1600.7,1952.6,1599.7,1952.6,1599.7,1952.6z"/>
<path fill="#D68533" d="M1488,2059.7c-7.6,0-15.5,0-23.1,0c-2.3,0-3.9,0.7-6.2-0.7h-0.7c-3.9,1.6-8.6,0.7-12.3,0.7c-0.7,0-2.3,0-3,0
	c-2.3-0.7-3.9-1.6-3.9-3.9c0-3,0-6.9,0-9.9c0-2.3,1.6-3.9,3.9-3.9c1.6,0,3,0,4.6-0.7c2.3-0.7,3.9-1.6,3.9-4.6c0-1.6,0-2.3,0-3.9
	c0-20.8,0-41.7,0-62.5c0-1.6,0-3,0-4.6c0-2.3-1.6-3.9-3.9-3.9c-1.6,0-3,0-4.6-0.7c-3-0.7-3.9-1.6-4.6-4.6c0-2.3,0-5.3,0-7.6
	c0-3,1.6-4.6,4.6-5.3c1.6,0,3,0,4.6,0c10,0,20.1,0,30.1,0c2.3,0,3.9,0,6.2,0.7c0.7,0,1.6,0.7,2.3,1.6c0.7,0.7,0.7,1.6,0,2.3
	c0,0,0,0.7,0,1.6c1.6,2.3,0.7,4.6,0.7,7.6c0,2.3-1.6,3.9-3.9,3.9c-1.6,0-3.9,0-5.3,0.7c-3.9,0-4.6,1.6-5.3,5.3c0,1.6,0,3,0,4.6
	c0,20.1,0,40,0,60.2c0,1.6,0,3.9,0,5.3c0,2.3,1.6,3.9,3.9,3.9c0.7,0,1.6,0,3,0c5.3,0,11.6,0,16.9,0c0.7,0,1.6,0,3,0
	c2.3-0.7,3.9-1.6,4.6-4.6c0-2.3,0-3.9,0-6.2c0-3.9,1.6-5.3,5.3-5.3c3,0,5.3,0,8.6,0s5.3,1.6,5.3,5.3c0,4.6,0,9.3,0,14.6
	c0,3,0,6.2,0,8.6c0,3.9-1.6,5.3-5.3,5.3c-1.6,0-2.3,0-3.9,0C1504.2,2059.7,1496.5,2059.7,1488,2059.7z M1448.6,2045.8
	c-0.7,0.7-1.6,1.6-1.6,1.6c0.7,0.7,0.7,0.7,1.6,1.6c0.7,0,1.6,0,1.6-0.7C1450.2,2047.4,1449.6,2046.7,1448.6,2045.8z M1456.5,1970.4
	c-0.7,0-1.6-0.7-2.3-0.7h-0.7c0,0.7,0.7,1.6,1.6,1.6C1455.6,1971.1,1456.5,1970.4,1456.5,1970.4z M1519,2033.6c0,0,0-0.7-0.7-0.7
	C1518,2032.9,1518,2032.9,1519,2033.6C1518,2032.9,1518,2033.6,1519,2033.6C1518,2033.6,1519,2033.6,1519,2033.6z"/>
<path fill="#D68533" d="M1291.5,2029.6c0.7-0.7,0.7-1.6,1.6-2.3c-3.9-2.3-3.9-2.3-4.6-6.2c-0.7-2.3-0.7-4.6-1.6-6.2
	c0-0.7,0.7-2.3,0.7-3c0-0.7-0.7-1.6-1.6-2.3c0-0.7,0-0.7,0-1.6c-0.7-8.6,0-16.2,2.3-23.8c6.9-22.4,26.1-38.6,50.2-41.7
	c10-0.7,19.2-0.7,28.5,2.3c5.3,1.6,10,3.9,14.6,6.9c3,2.3,6.2,5.3,7.6,9.3c2.3,3.9,3,7.6,2.3,12.3c-1.6,9.3-11.6,13.9-19.2,9.3
	c-3-2.3-5.3-4.6-6.2-8.6c0-1.6,0-2.3,0-3.9c0-3-1.6-5.3-4.6-6.9c-5.3-2.3-10-2.3-15.5-2.3c-22.4,0.7-36.3,16.9-37.7,36.3
	c-0.7,8.6,0,16.9,3.9,24.8c7.6,14.6,19.2,22.4,36.3,21.5c6.2,0,12.3-1.6,18.5-3.9c4.6-1.6,6.9-4.6,6.2-9.9c0-2.3,0-5.3,0-7.6
	c0-3.9-1.6-5.3-5.3-5.3c-4.6,0-9.3,0-13.9,0c-1.6,0-3,0-4.6,0c-2.3,0-3.9-1.6-3.9-3.9c0-3,0-5.3,0-8.6c0-2.3,1.6-3.9,4.6-3.9
	c0.7,0,2.3,0,3,0c10.9,0,21.5,0,32.4,0c6.9,0,7.6,1.6,7.6,8.6c0,14.6,0,29.4,0,44c0,6.9-1.6,7.6-8.6,7.6c-1.6,0-3,0-4.6,0
	c-2.3,0-4.6-0.7-6.2-3c-2.3-3-3.9-2.3-6.9-0.7c-5.3,3-10.9,4.6-16.9,5.3C1321.6,2065.3,1299.1,2048.1,1291.5,2029.6z"/>
<path fill="#D68533" d="M1165.9,1993.5c-2.3,0.7-3,2.3-1.6,3c1.4,0.7,2.3,2.3,2.3,3.9c0,11.6,0,22.4,0,34c0,6.9,0.7,7.6,7.6,8.6
	c0.7,0,0.7,0,1.6,0c3,0.7,4.6,1.6,5.3,4.6c0,3,0,5.3,0,8.6c0,2.3-1.6,3.9-3.9,4.6c-0.7,0-2.3,0-3,0c-10.9,0-20.8,0-31.7,0
	c-6.2,0-7.6-1.6-7.6-7.6c0-1.6,0-3,0-4.6c0.7-3,1.6-4.6,4.6-4.6c1.6,0,2.3,0,3.9-0.7c2.3-0.7,3.9-1.6,3.9-4.6c0-1.6,0-3,0-4.6
	c0-20.8,0-41.7,0-61.8v-0.7c0-6.2-0.7-6.9-6.9-7.6c-0.7,0-1.6,0-3-0.7c-1.6-0.7-3-1.6-3-3c-0.7-3-0.7-6.9,0-10.9c0.7-1.6,1.6-3,3-3
	c1.6,0,2.3-0.7,3.9-0.7c5.3,0,10.9,0,16.2,0c4.6,0,7.6,1.6,10.9,5.3c6.2,7.6,11.6,15.5,17.8,22.4c8.6,10.9,17.8,22.4,26.1,33.1
	c1.6,1.6,2.3,3,3.9,4.6c1.6,1.6,3,0.7,3.9-1.6c0-1.6,0.7-2.3,0.7-3.9c0-11.6,0-23.8,0-35.4c0-0.7,0-1.6,0-3c-0.7-3-1.6-3.9-4.6-4.6
	c-1.6,0-3,0-4.6-0.7c-3-0.7-3.9-1.6-4.6-4.6c0-3,0-6.2,0-8.6c0-2.3,1.6-3.9,4.6-4.6c1.6,0,3,0,4.6,0c9.3,0,19.2,0,28.5,0
	c1.6,0,3,0,4.6,0.7c2.3,0,3,1.6,3.9,3.9c0,3,0,6.2,0,9.3c0,2.3-1.6,3.9-3.9,3.9c-1.6,0-3,0-4.6,0.7c-2.3,0-3.9,1.6-3.9,3.9
	c0,2.3,0,3.9,0,6.2c0,25.5,0,51.6,0,77.1c0,2.3,0,3.9,0,6.2s-1.6,3.9-3.9,3.9c-3.9,0.7-6.9,0-9.3-3c-1.6-1.6-2.3-3-3.9-4.6
	c-16.2-20.1-31.7-40-47.9-60.9c-1.6-1.6-3-3-4.6-4.6s-3-0.7-3.9,1.6C1165.9,1989.6,1165.9,1991.2,1165.9,1993.5z M1160.3,2004.4
	c0.7,0.7,1.6,1.6,1.6,1.6c1.6,0.7,2.3,0,3-0.7c0-1.6,0-3-1.6-4.6c-0.7,0-1.6-0.7-1.6,0c0,0.7,0.7,1.6,0.7,2.3
	C1161.9,2003.5,1161.2,2003.5,1160.3,2004.4z M1222.1,1955.8c-0.7,0-0.7,0.7-0.7,0.7c0,0.7,0,0.7,0.7,1.6h0.7
	C1222.1,1957.2,1222.1,1956.5,1222.1,1955.8z M1158,2002.1C1157.3,2002.1,1157.3,2001.2,1158,2002.1c-0.7-0.7-0.7-0.7-1.6-0.7
	c0,0,0,0.7,0.7,0.7C1157.3,2002.1,1157.3,2002.1,1158,2002.1z M1154.3,1998.1L1154.3,1998.1c-0.7-0.7-0.7,0-0.7,0
	C1153.4,1998.1,1154.3,1998.1,1154.3,1998.1C1154.3,1998.8,1154.3,1998.1,1154.3,1998.1z"/>
<path fill="#FFFFFF" d="M1071,2001.2c0,9.9,0,20.1,0,30.1c0,1.6,0,3,0,4.6c0.7,3,1.6,3.9,4.6,4.6c1.6,0,3,0,4.6,0
	c3,0.7,4.6,1.6,4.6,4.6s0,5.3,0,8.6c0,3-1.6,4.6-4.6,4.6c-1.6,0-2.3,0-3.9,0c-10,0-20.8,0-30.8,0c-7.6,0-8.6-1.6-8.6-8.6
	c0-1.6,0-3,0-4.6c0-2.3,1.6-3.9,3.9-3.9c1.6,0,3,0,4.6,0c3.9-0.7,4.6-1.6,5.3-5.3c0-1.6,0-3,0-4.6c0-20.1,0-40,0-60.2
	c0-1.6,0-3.9,0-5.3c0-2.3-1.6-3.9-3.9-3.9c-1.6,0-3,0-4.6-0.7c-3-0.7-4.6-1.6-4.6-4.6s0-5.3,0-8.6c0-3,1.6-3.9,4.6-4.6
	c1.6,0,2.3,0,3.9,0c10,0,20.8,0,30.8,0c7.6,0,8.6,1.6,8.6,8.6c0,1.6,0,3,0,4.6c0,2.3-1.6,3.9-3.9,4.6c-1.6,0-3,0-4.6,0.7
	c-3.9,0.7-4.6,1.6-5.3,5.3c0,1.6,0,3,0,4.6C1071,1982,1071,1991.9,1071,2001.2z M1066.3,1991.9c-0.7,0-0.7-0.7-1.6-0.7l-0.7,0.7
	l0.7,0.7C1065.7,1992.8,1065.7,1992.8,1066.3,1991.9z"/>
<path fill="#D68533" d="M949.3,2062c-10.9,0-20.8-2.3-30.1-8.6c-3-2.3-6.2-4.6-8.6-8.6s-3.9-8.6-3-13.2c0.7-6.9,6.2-10.9,12.3-10.9
	c6.2,0.7,11.6,5.3,11.6,11.6c0,0.7,0,1.6,0,3c0,3,1.6,5.3,3.9,6.2c7.6,3,16.2,3,23.8,0c1.6-0.7,3-1.6,3.9-2.3
	c6.2-5.3,6.2-13.9,0.7-19.2c-2.3-2.3-5.3-4.6-8.6-5.3c-3.9-1.6-7.6-3-11.6-4.6c-4.6-1.6-9.3-3.9-13.9-6.2c-3-1.6-6.2-3.9-9.3-6.2
	c-6.2-4.6-10-11.6-10-19.2c0-3.9,0-8.6,0.7-12.3c1.6-6.9,5.3-12.3,10.9-16.9c4.6-3.9,10-6.2,16.2-6.9c10-1.6,20.1-1.6,29.4,2.3
	c4.6,1.6,9.3,3.9,12.3,7.6c3,3,5.3,6.9,6.2,12.3c0,1.6,0,3,0,4.6c-0.7,6.9-5.3,10.9-11.6,10.9c-7.6,0-11.6-5.3-12.3-10.9
	c0-0.7,0-1.6,0-2.3c-0.7-3.9-1.6-5.3-6.2-6.9c-4.6-0.7-9.3-1.6-13.9,0c-1.6,0.7-3.9,0.7-5.3,2.3c-7.6,4.6-9.3,13.9-2.3,20.1
	c2.3,1.6,4.6,3,6.9,4.6c3,1.6,6.2,3,10,3.9c3,1.6,6.2,2.3,8.6,3c3.9,1.6,6.9,3,10.9,4.6c13.9,7.6,20.1,20.1,16.2,37
	c-1.6,8.6-6.9,14.6-14.6,19.2c-6.9,3.9-13.9,5.3-21.5,6.2C951.6,2062,950.6,2062,949.3,2062z"/>
</svg>
