<?xml version="1.0" encoding="utf-8"?>
<!-- Generator: Adobe Illustrator 18.1.0, SVG Export Plug-In . SVG Version: 6.00 Build 0)  -->
<!DOCTYPE svg PUBLIC "-//W3C//DTD SVG 1.1//EN" "http://www.w3.org/Graphics/SVG/1.1/DTD/svg11.dtd">
<svg version="1.1" id="Layer_1" xmlns="http://www.w3.org/2000/svg" xmlns:xlink="http://www.w3.org/1999/xlink" x="0px" y="0px"
	 viewBox="802 238.2 1400 286" enable-background="new 802 238.2 1400 286" xml:space="preserve">
<path fill="#353535" d="M1984.7,336.3c-0.7-0.7-0.7-1.6-1.6-2.3c-1.6-4.6,0.7-8.6,5.3-8.6c6.9,0,13.9,0,20.8,0c3,0,4.6,1.6,6.9,3
	c1.6,1.6,2.3,3,3.9,4.6c13.9,17.8,27.8,35.4,41.7,52.5c1.6,1.6,2.3,3,3.9,4.6c2.3,2.3,3.9,1.6,4.6-1.6c0-1.6,0-3,0-4.6
	c0-11.6,0-22.4,0-34c0-5.3-0.7-8.6-7.6-8.6c-0.7,0-2.3,0-3-0.7c-1.6-0.7-3-1.6-3-3c0-3,0-6.9,0-9.9c0-2.3,1.6-3,3.9-3.9
	c1.6,0,3-0.7,4.6-0.7c10,0,20.1,0,30.1,0c1.6,0,3,0,4.6,0c2.3,0,3.9,1.6,3.9,3.9c0,3,0,6.9,0,9.9c0,2.3-1.6,3-3.9,3.9
	c-1.6,0-3,0.7-4.6,0.7c-2.3,0-3.9,1.6-3.9,3.9c0,2.3,0,3.9,0,6.2c0,25.5,0,51.6,0,77.7c0,1.6,0,3.9,0,5.3c0,3-1.6,4.6-4.6,4.6
	c-3.9,0.7-6.9,0-9.3-3c-1.6-1.6-2.3-3-3.9-4.6c-16.2-20.1-31.7-41-47.9-60.9c-1.6-1.6-3-3-4.6-4.6c-1.6-1.6-3-0.7-3.9,1.6
	c0,1.6,0,2.3,0,3.9c0,13.9,0,28.5,0,42.3c0,6.2,0.7,6.9,6.9,7.6c4.6,0,7.6,1.6,6.9,7.6c0,1.6,0,3.9,0,5.3c0,2.3-1.6,3.9-4.6,4.6
	c-1.6,0-2.3,0-3.9,0c-10,0-20.1,0-30.1,0c0,0,0,0-0.7,0c-6.2,0-7.6-1.6-7.6-7.6c0-1.6,0-3,0-4.6c0-3,1.6-4.6,4.6-4.6
	c0.7,0,1.6,0,3,0c4.6-0.7,5.3-1.6,6.2-6.2c0-0.7,0-1.6,0-3c0-20.8,0-41,0-61.8c0-1.6,0-2.3,0-3.9c0-3-1.6-4.6-4.6-5.3
	c-1.6,0-3,0-4.6-0.7c-0.7,0-2.3-0.7-3-1.6C1982.4,340.2,1982.4,338.6,1984.7,336.3z"/>
<path fill="#353535" d="M1906,383.5c0-9.9,0-20.1,0-30.1c0-0.7,0-1.6,0-3c0-4.6-0.7-7.6-6.9-7.6s-6.9-1.6-6.9-7.6c0-1.6,0-3.9,0-5.3
	c0.7-3,1.6-3.9,4.6-4.6c1.6,0,3,0,4.6,0c10,0,20.1,0,30.1,0c1.6,0,3,0,4.6,0c2.3,0,3.9,1.6,3.9,3.9c0,3,0,6.2,0,9.3
	c0,2.3-1.6,3.9-3.9,3.9c-1.6,0-3,0-4.6,0.7c-3,0.7-4.6,1.6-4.6,4.6c0,1.6,0,3,0,4.6c0,20.8,0,41,0,61.8c0,1.6,0,3,0,4.6
	c0,2.3,1.6,3.9,3.9,3.9c1.6,0,3,0,4.6,0.7c3,0.7,4.6,1.6,4.6,4.6c0,3,0,6.2,0,8.6c0,2.3-1.6,3.9-3.9,3.9c-1.6,0-2.3,0-3.9,0
	c-10.9,0-21.5,0-32.4,0c-6.9,0-7.6-1.6-8.6-8.6c0-1.6,0-3,0-4.6c0.7-3,1.6-3.9,4.6-4.6c1.6,0,3,0,4.6,0c3-0.7,4.6-1.6,4.6-5.3
	c0-1.6,0-3,0-4.6C1906,403.4,1906,393.4,1906,383.5z"/>
<path fill="#353535" d="M1808.1,325.6c10.9,0,21.5,0,32.4,0c1.6,0,3.9,0,5.3,0c3,0.7,3.9,1.6,4.6,3.9c0,0.7,0,1.6,0,3
	c0,6.2,0,12.3,0,18.5c0,0.7,0,1.6,0,3c-0.7,2.3-1.6,3.9-4.6,4.6c-3,0-6.9,0-10,0c-3,0-4.6-1.6-4.6-5.3c0-1.6,0-3,0-4.6
	c0-3-1.6-4.6-4.6-4.6c-2.3,0-4.6,0-6.9,0c-4.6,0-8.6,0-13.2,0c-1.6,0-2.3,0-3.9,0c-2.3,0-3.9,1.6-4.6,4.6c0,0.7,0,2.3,0,3
	c0,5.3,0,10.9,0,16.9c0,0.7,0,1.6,0,2.3c0.7,3.9,1.6,5.3,6.2,5.3c6.2,0,12.3,0,18.5,0c1.6,0,3,0,4.6,0c3,0,4.6,1.6,4.6,4.6
	c0,2.3,0,5.3,0,7.6c0,2.3-1.6,3.9-3.9,4.6c-1.6,0-3,0-4.6,0c-5.3,0-10,0-15.5,0c-1.6,0-2.3,0-3.9,0c-3.9,0-5.3,1.6-6.2,5.3
	c0,6.2,0,12.3,0,18.5c0,3.9,1.6,5.3,6.2,6.2c1.6,0,3,0,4.6,0c3,0,4.6,1.6,4.6,4.6c0,3,0,5.3,0,8.6s-1.6,4.6-4.6,4.6
	c-0.7,0-2.3,0-3,0c-10.9,0-21.5,0-32.4,0c-6.2,0-7.6-1.6-7.6-7.6c0-1.6,0-3,0-4.6c0.7-3,1.6-4.6,4.6-4.6c1.6,0,3,0,4.6-0.7
	c2.3-0.7,3-1.6,3.9-3.9c0-1.6,0-3,0-4.6c0-20.8,0-41.7,0-62.5c0-1.6,0-3,0-4.6c0-2.3-1.6-3.9-3.9-3.9c-1.6,0-3,0-4.6-0.7
	c-3-0.7-3.9-1.6-4.6-4.6c0-2.3,0-5.3,0-7.6c0-3,1.6-4.6,4.6-4.6c1.6,0,3,0,4.6,0C1785.7,325.6,1797.3,325.6,1808.1,325.6z"/>
<path fill="#353535" d="M1641.5,410.3c2.3-0.7,3-2.3,4.6-2.3c4.6-0.7,6.9,1.6,6.9,6.2c0,6.9,0,13.9,0,20.8c0,3.9-1.6,5.3-5.3,6.2
	c-0.7,0-2.3,0-3,0c-11.6,0-22.4,0-34,0c-2.3,0-5.3,0-7.6-1.6c-1.6-0.7-3-1.6-5.3-1.6c-0.7,0.7-0.7,1.6-1.6,1.6
	c0,0.7-0.7,0.7-0.7,1.6c-7.6,0-14.6,0-22.4,0c-4.6,0-6.2-1.6-6.2-6.2c0-2.3,0-4.6,0-6.9c0-2.3,1.6-3.9,4.6-4.6c0.7,0,2.3,0,3,0
	c3.9-0.7,4.6-1.6,5.3-6.2c0-0.7,0-1.6,0-3c0-20.8,0-41.7,0-62.5v-0.7c0-6.2-0.7-6.9-6.9-7.6c-0.7,0-1.6,0-3-0.7c-1.6-0.7-3-1.6-3-3
	c0-3,0-6.9,0-9.9c0-2.3,1.6-3,3.9-3.9c1.6,0,3-0.7,4.6-0.7c23.1,0,46.3,0,69.4,0c1.6,0,3,0,4.6,0c2.3,0,3,1.6,3.9,3.9
	c0,1.6,0,2.3,0,3.9c0,6.2,0,11.6,0,17.8c0,0.7,0,2.3,0,3c-0.7,2.3-1.6,3.9-4.6,4.6c-3.9,0-6.9,0-10.9,0c-2.3,0-3.9-1.6-3.9-3.9
	c0-1.6,0-3.9,0-5.3c0-3.9-1.6-5.3-5.3-5.3c-7.6,0-15.5,0-22.4,0c-3.9,0-5.3,1.6-5.3,5.3c0,6.2,0,13.2,0,19.2c0,3.9,1.6,5.3,5.3,5.3
	c6.2,0,13.2,0,19.2,0c1.6,0,3,0,4.6,0c3,0.7,4.6,1.6,4.6,4.6c0,2.3,0,5.3,0,7.6c0,2.3-1.6,3.9-3.9,3.9c-1.6,0-3,0-4.6,0
	c-6.2,0-11.6,0-17.8,0c-6.9,0-7.6,0.7-7.6,7.6c0,5.3,0,10.9,0,16.2c0,0.7,0,1.6,0,3c0,3,1.6,4.6,4.6,5.3c0.7,0,1.6,0,3,0
	c6.2,0,12.3,0,18.5,0c0.7,0,1.6,0,2.3,0c3-0.7,4.6-1.6,5.3-5.3c0-2.3,0-3.9,0.7-6.2c0-2.3,1.6-3,3.9-3.9
	C1639.2,407.3,1640.8,408,1641.5,410.3z M1602.2,333.9L1602.2,333.9c-0.7,0.7,0,0.7,0,0.7C1602.2,333.9,1602.2,333.9,1602.2,333.9
	C1603.1,333.9,1602.2,333.9,1602.2,333.9z"/>
<path fill="#353535" d="M1490.4,441.1c-7.6,0-15.5,0-23.1,0c-2.3,0-3.9,0.7-6.2-0.7h-0.7c-3.9,1.6-8.6,0.7-12.3,0.7
	c-0.7,0-2.3,0-3,0c-2.3-0.7-3.9-1.6-3.9-3.9c0-3,0-6.9,0-9.9c0-2.3,1.6-3.9,3.9-3.9c1.6,0,3,0,4.6-0.7c2.3-0.7,3.9-1.6,3.9-4.6
	c0-1.6,0-2.3,0-3.9c0-20.8,0-41.7,0-62.5c0-1.6,0-3,0-4.6c0-2.3-1.6-3.9-3.9-3.9c-1.6,0-3,0-4.6-0.7c-3-0.7-3.9-1.6-4.6-4.6
	c0-2.3,0-5.3,0-7.6c0-3,1.6-4.6,4.6-5.3c1.6,0,3,0,4.6,0c10,0,20.1,0,30.1,0c2.3,0,3.9,0,6.2,0.7c0.7,0,1.6,0.7,2.3,1.6
	c0.7,0.7,0.7,1.6,0,2.3c0,0,0,0.7,0,1.6c1.6,2.3,0.7,4.6,0.7,7.6c0,2.3-1.6,3.9-3.9,3.9c-1.6,0-3.9,0-5.3,0.7
	c-3.9,0-4.6,1.6-5.3,5.3c0,1.6,0,3,0,4.6c0,20.1,0,40,0,60.2c0,1.6,0,3.9,0,5.3c0,2.3,1.6,3.9,3.9,3.9c0.7,0,1.6,0,3,0
	c5.3,0,11.6,0,16.9,0c0.7,0,1.6,0,3,0c2.3-0.7,3.9-1.6,4.6-4.6c0-2.3,0-3.9,0-6.2c0-3.9,1.6-5.3,5.3-5.3c3,0,5.3,0,8.6,0
	s5.3,1.6,5.3,5.3c0,4.6,0,9.3,0,14.6c0,3,0,6.2,0,8.6c0,3.9-1.6,5.3-5.3,5.3c-1.6,0-2.3,0-3.9,0
	C1506.6,441.1,1499,441.1,1490.4,441.1z M1451.1,427.2c-0.7,0.7-1.6,1.6-1.6,1.6c0.7,0.7,0.7,0.7,1.6,1.6c0.7,0,1.6,0,1.6-0.7
	C1452.7,428.8,1452,428.1,1451.1,427.2z M1458.9,351.8c-0.7,0-1.6-0.7-2.3-0.7h-0.7c0,0.7,0.7,1.6,1.6,1.6
	C1458,352.4,1458.9,351.8,1458.9,351.8z M1521.4,414.9c0,0,0-0.7-0.7-0.7C1520.5,414.2,1520.5,414.2,1521.4,414.9
	C1520.5,414.2,1520.5,414.9,1521.4,414.9C1520.5,414.9,1521.4,414.9,1521.4,414.9z"/>
<path fill="#353535" d="M1294,411c0.7-0.7,0.7-1.6,1.6-2.3c-3.9-2.3-3.9-2.3-4.6-6.2c-0.7-2.3-0.7-4.6-1.6-6.2c0-0.7,0.7-2.3,0.7-3
	s-0.7-1.6-1.6-2.3c0-0.7,0-0.7,0-1.6c-0.7-8.6,0-16.2,2.3-23.8c6.9-22.4,26.1-38.6,50.2-41.7c10-0.7,19.2-0.7,28.5,2.3
	c5.3,1.6,10,3.9,14.6,6.9c3,2.3,6.2,5.3,7.6,9.3c2.3,3.9,3,7.6,2.3,12.3c-1.6,9.3-11.6,13.9-19.2,9.3c-3-2.3-5.3-4.6-6.2-8.6
	c0-1.6,0-2.3,0-3.9c0-3-1.6-5.3-4.6-6.9c-5.3-2.3-10-2.3-15.5-2.3c-22.4,0.7-36.3,16.9-37.7,36.3c-0.7,8.6,0,16.9,3.9,24.8
	c7.6,14.6,19.2,22.4,36.3,21.5c6.2,0,12.3-1.6,18.5-3.9c4.6-1.6,6.9-4.6,6.2-9.9c0-2.3,0-5.3,0-7.6c0-3.9-1.6-5.3-5.3-5.3
	c-4.6,0-9.3,0-13.9,0c-1.6,0-3,0-4.6,0c-2.3,0-3.9-1.6-3.9-3.9c0-3,0-5.3,0-8.6c0-2.3,1.6-3.9,4.6-3.9c0.7,0,2.3,0,3,0
	c10.9,0,21.5,0,32.4,0c6.9,0,7.6,1.6,7.6,8.6c0,14.6,0,29.4,0,44c0,6.9-1.6,7.6-8.6,7.6c-1.6,0-3,0-4.6,0c-2.3,0-4.6-0.7-6.2-3
	c-2.3-3-3.9-2.3-6.9-0.7c-5.3,3-10.9,4.6-16.9,5.3C1324,446.6,1301.6,429.5,1294,411z"/>
<path fill="#353535" d="M1168.3,374.9c-2.3,0.7-3,2.3-1.6,3c1.4,0.7,2.3,2.3,2.3,3.9c0,11.6,0,22.4,0,34c0,6.9,0.7,7.6,7.6,8.6
	c0.7,0,0.7,0,1.6,0c3,0.7,4.6,1.6,5.3,4.6c0,3,0,5.3,0,8.6c0,2.3-1.6,3.9-3.9,4.6c-0.7,0-2.3,0-3,0c-10.9,0-20.8,0-31.7,0
	c-6.2,0-7.6-1.6-7.6-7.6c0-1.6,0-3,0-4.6c0.7-3,1.6-4.6,4.6-4.6c1.6,0,2.3,0,3.9-0.7c2.3-0.7,3.9-1.6,3.9-4.6c0-1.6,0-3,0-4.6
	c0-20.8,0-41.7,0-61.8v-0.7c0-6.2-0.7-6.9-6.9-7.6c-0.7,0-1.6,0-3-0.7c-1.6-0.7-3-1.6-3-3c-0.7-3-0.7-6.9,0-10.9c0.7-1.6,1.6-3,3-3
	c1.6,0,2.3-0.7,3.9-0.7c5.3,0,10.9,0,16.2,0c4.6,0,7.6,1.6,10.9,5.3c6.2,7.6,11.6,15.5,17.8,22.4c8.6,10.9,17.8,22.4,26.1,33.1
	c1.6,1.6,2.3,3,3.9,4.6c1.6,1.6,3,0.7,3.9-1.6c0-1.6,0.7-2.3,0.7-3.9c0-11.6,0-23.8,0-35.4c0-0.7,0-1.6,0-3c-0.7-3-1.6-3.9-4.6-4.6
	c-1.6,0-3,0-4.6-0.7c-3-0.7-3.9-1.6-4.6-4.6c0-3,0-6.2,0-8.6s1.6-3.9,4.6-4.6c1.6,0,3,0,4.6,0c9.3,0,19.2,0,28.5,0
	c1.6,0,3,0,4.6,0.7c2.3,0,3,1.6,3.9,3.9c0,3,0,6.2,0,9.3c0,2.3-1.6,3.9-3.9,3.9c-1.6,0-3,0-4.6,0.7c-2.3,0-3.9,1.6-3.9,3.9
	c0,2.3,0,3.9,0,6.2c0,25.5,0,51.6,0,77.1c0,2.3,0,3.9,0,6.2c0,2.3-1.6,3.9-3.9,3.9c-3.9,0.7-6.9,0-9.3-3c-1.6-1.6-2.3-3-3.9-4.6
	c-16.2-20.1-31.7-40-47.9-60.9c-1.6-1.6-3-3-4.6-4.6c-1.6-1.6-3-0.7-3.9,1.6C1168.3,371,1168.3,372.6,1168.3,374.9z M1162.7,385.8
	c0.7,0.7,1.6,1.6,1.6,1.6c1.6,0.7,2.3,0,3-0.7c0-1.6,0-3-1.6-4.6c-0.7,0-1.6-0.7-1.6,0s0.7,1.6,0.7,2.3
	C1164.4,384.8,1163.7,384.8,1162.7,385.8z M1224.5,337.2c-0.7,0-0.7,0.7-0.7,0.7c0,0.7,0,0.7,0.7,1.6h0.7
	C1224.5,338.6,1224.5,337.9,1224.5,337.2z M1160.4,383.5C1159.7,383.5,1159.7,382.5,1160.4,383.5c-0.7-0.7-0.7-0.7-1.6-0.7
	c0,0,0,0.7,0.7,0.7C1159.7,383.5,1159.7,383.5,1160.4,383.5z M1156.7,379.5L1156.7,379.5c-0.7-0.7-0.7,0-0.7,0
	C1155.8,379.5,1156.7,379.5,1156.7,379.5C1156.7,380.2,1156.7,379.5,1156.7,379.5z"/>
<path fill="#FFFFFF" d="M1073.4,382.5c0,9.9,0,20.1,0,30.1c0,1.6,0,3,0,4.6c0.7,3,1.6,3.9,4.6,4.6c1.6,0,3,0,4.6,0
	c3,0.7,4.6,1.6,4.6,4.6c0,3,0,5.3,0,8.6c0,3-1.6,4.6-4.6,4.6c-1.6,0-2.3,0-3.9,0c-10,0-20.8,0-30.8,0c-7.6,0-8.6-1.6-8.6-8.6
	c0-1.6,0-3,0-4.6c0-2.3,1.6-3.9,3.9-3.9c1.6,0,3,0,4.6,0c3.9-0.7,4.6-1.6,5.3-5.3c0-1.6,0-3,0-4.6c0-20.1,0-40,0-60.2
	c0-1.6,0-3.9,0-5.3c0-2.3-1.6-3.9-3.9-3.9c-1.6,0-3,0-4.6-0.7c-3-0.7-4.6-1.6-4.6-4.6s0-5.3,0-8.6c0-3,1.6-3.9,4.6-4.6
	c1.6,0,2.3,0,3.9,0c10,0,20.8,0,30.8,0c7.6,0,8.6,1.6,8.6,8.6c0,1.6,0,3,0,4.6c0,2.3-1.6,3.9-3.9,4.6c-1.6,0-3,0-4.6,0.7
	c-3.9,0.7-4.6,1.6-5.3,5.3c0,1.6,0,3,0,4.6C1073.4,363.3,1073.4,373.3,1073.4,382.5z M1068.8,373.3c-0.7,0-0.7-0.7-1.6-0.7l-0.7,0.7
	l0.7,0.7C1068.1,374.2,1068.1,374.2,1068.8,373.3z"/>
<path fill="#353535" d="M951.7,443.4c-10.9,0-20.8-2.3-30.1-8.6c-3-2.3-6.2-4.6-8.6-8.6c-2.3-3.9-3.9-8.6-3-13.2
	c0.7-6.9,6.2-10.9,12.3-10.9c6.2,0.7,11.6,5.3,11.6,11.6c0,0.7,0,1.6,0,3c0,3,1.6,5.3,3.9,6.2c7.6,3,16.2,3,23.8,0
	c1.6-0.7,3-1.6,3.9-2.3c6.2-5.3,6.2-13.9,0.7-19.2c-2.3-2.3-5.3-4.6-8.6-5.3c-3.9-1.6-7.6-3-11.6-4.6c-4.6-1.6-9.3-3.9-13.9-6.2
	c-3-1.6-6.2-3.9-9.3-6.2c-6.2-4.6-10-11.6-10-19.2c0-3.9,0-8.6,0.7-12.3c1.6-6.9,5.3-12.3,10.9-16.9c4.6-3.9,10-6.2,16.2-6.9
	c10-1.6,20.1-1.6,29.4,2.3c4.6,1.6,9.3,3.9,12.3,7.6c3,3,5.3,6.9,6.2,12.3c0,1.6,0,3,0,4.6c-0.7,6.9-5.3,10.9-11.6,10.9
	c-7.6,0-11.6-5.3-12.3-10.9c0-0.7,0-1.6,0-2.3c-0.7-3.9-1.6-5.3-6.2-6.9c-4.6-0.7-9.3-1.6-13.9,0c-1.6,0.7-3.9,0.7-5.3,2.3
	c-7.6,4.6-9.3,13.9-2.3,20.1c2.3,1.6,4.6,3,6.9,4.6c3,1.6,6.2,3,10,3.9c3,1.6,6.2,2.3,8.6,3c3.9,1.6,6.9,3,10.9,4.6
	c13.9,7.6,20.1,20.1,16.2,37c-1.6,8.6-6.9,14.6-14.6,19.2c-6.9,3.9-13.9,5.3-21.5,6.2C954,443.4,953.1,443.4,951.7,443.4z"/>
<g>
	<path fill="#353535" d="M2194.5,246.4v270h-1384v-270H2194.5 M2202.5,238.4h-1400v286h1400V238.4L2202.5,238.4z"/>
</g>
</svg>
