<?xml version="1.0" encoding="utf-8"?>
<!-- Generator: Adobe Illustrator 16.0.0, SVG Export Plug-In . SVG Version: 6.00 Build 0)  -->
<!DOCTYPE svg PUBLIC "-//W3C//DTD SVG 1.1//EN" "http://www.w3.org/Graphics/SVG/1.1/DTD/svg11.dtd">
<svg version="1.1" id="Layer_1" xmlns="http://www.w3.org/2000/svg" xmlns:xlink="http://www.w3.org/1999/xlink" x="0px" y="0px"
	 width="612px" height="792px" viewBox="0 0 612 792" enable-background="new 0 0 612 792" xml:space="preserve">
<title>Waves-black-01</title>
<path fill="#FFFFFF" d="M21.508,324.025c-11.893,0-21.534-9.641-21.534-21.534c0-11.893,9.641-21.534,21.534-21.534
	c40.678,0,73.525-39.305,73.525-87.661c0-11.893,9.641-21.534,21.534-21.534c11.893,0,21.534,9.641,21.534,21.534
	C138.102,265.398,85.831,324.025,21.508,324.025z"/>
<path fill="#FFFFFF" d="M211.627,324.025c-64.169,0-116.593-58.627-116.593-130.729c0-11.893,9.641-21.534,21.534-21.534
	c11.893,0,21.534,9.641,21.534,21.534c0,48.305,33,87.661,73.525,87.661c11.893,0,21.534,9.641,21.534,21.534
	C233.161,314.384,223.52,324.025,211.627,324.025z"/>
<path fill="#FFFFFF" d="M211.627,324.025c-11.893,0-21.534-9.641-21.534-21.534c0-11.893,9.641-21.534,21.534-21.534
	c40.678,0,73.525-39.305,73.525-87.661c0-11.893,9.641-21.534,21.534-21.534c11.893,0,21.534,9.641,21.534,21.534
	C328.221,265.398,275.949,324.025,211.627,324.025z"/>
<path fill="#FFFFFF" d="M401.695,324.025c-64.271,0-116.594-58.627-116.594-130.678c0-11.893,9.641-21.534,21.534-21.534
	c11.893,0,21.534,9.641,21.534,21.534c0,48.305,33,87.661,73.525,87.661c11.879,0,21.508,9.63,21.508,21.509
	C423.203,314.396,413.574,324.025,401.695,324.025z"/>
<path fill="#FFFFFF" d="M400.373,324.025c-11.893,0-21.534-9.641-21.534-21.534c0-11.893,9.642-21.534,21.534-21.534
	c40.678,0,73.525-39.305,73.525-87.661c0-11.893,9.641-21.534,21.534-21.534c11.893,0,21.533,9.641,21.533,21.534
	C516.915,265.398,464.645,324.025,400.373,324.025z"/>
<path fill="#FFFFFF" d="M590.44,324.025c-64.271,0-116.593-58.627-116.593-130.678c0-11.893,9.641-21.534,21.534-21.534
	c11.893,0,21.533,9.641,21.533,21.534c0,48.305,33,87.661,73.525,87.661c11.879,0,21.509,9.63,21.509,21.509
	C611.949,314.396,602.319,324.025,590.44,324.025L590.44,324.025z"/>
<path d="M590.44,302.466"/>
<path fill="#FFFFFF" d="M21.508,499.958c-11.893,0-21.534-9.642-21.534-21.534s9.641-21.534,21.534-21.534
	c40.678,0,73.525-39.305,73.525-87.661c0-11.893,9.641-21.534,21.534-21.534c11.893,0,21.534,9.641,21.534,21.534
	C138.102,441.279,85.831,499.958,21.508,499.958z"/>
<path fill="#FFFFFF" d="M211.627,499.958c-64.169,0-116.593-58.679-116.593-130.729c0-11.893,9.641-21.534,21.534-21.534
	c11.893,0,21.534,9.641,21.534,21.534c0,48.306,33,87.661,73.525,87.661c11.893,0,21.534,9.642,21.534,21.534
	S223.52,499.958,211.627,499.958z"/>
<path fill="#FFFFFF" d="M211.627,499.958c-11.893,0-21.534-9.642-21.534-21.534s9.641-21.534,21.534-21.534l0,0
	c40.678,0,73.525-39.305,73.525-87.661c0-11.893,9.641-21.534,21.534-21.534c11.893,0,21.534,9.641,21.534,21.534
	C328.221,441.279,275.949,499.958,211.627,499.958z"/>
<path fill="#FFFFFF" d="M401.695,499.958c-64.271,0-116.594-58.628-116.594-130.678c0-11.893,9.641-21.534,21.534-21.534
	c11.893,0,21.534,9.641,21.534,21.534c0,48.305,33,87.661,73.525,87.661c11.879,0.006,21.503,9.641,21.497,21.52
	C423.187,490.33,413.565,499.952,401.695,499.958z"/>
<path fill="#FFFFFF" d="M400.373,499.958c-11.893,0-21.534-9.642-21.534-21.534s9.642-21.534,21.534-21.534
	c40.678,0,73.525-39.305,73.525-87.661c0-11.893,9.641-21.534,21.534-21.534c11.893,0,21.533,9.641,21.533,21.534
	C516.915,441.279,464.645,499.958,400.373,499.958z"/>
<path fill="#FFFFFF" d="M590.44,499.958c-64.271,0-116.542-58.679-116.542-130.729c0-11.893,9.641-21.534,21.534-21.534
	c11.893,0,21.533,9.641,21.533,21.534c0,48.306,33,87.661,73.525,87.661c11.894,0.015,21.522,9.667,21.509,21.56
	S602.334,499.972,590.44,499.958L590.44,499.958z"/>
<path d="M590.44,478.398"/>
</svg>
