<svg id="Layer_1" data-name="Layer 1" xmlns="http://www.w3.org/2000/svg" viewBox="0 0 120.36 88.19"><defs><style>.cls-1{fill:#353535;}.cls-2{fill:#cc6c28;}</style></defs><title>WAves-white-01</title><path class="cls-1" d="M4.23,29.94a4.23,4.23,0,0,1,0-8.47c8,0,14.46-7.73,14.46-17.24a4.23,4.23,0,0,1,8.47,0C27.16,18.41,16.88,29.94,4.23,29.94Z"/><path class="cls-1" d="M41.62,29.94C29,29.94,18.69,18.41,18.69,4.23a4.23,4.23,0,0,1,8.47,0c0,9.5,6.49,17.24,14.46,17.24A4.23,4.23,0,1,1,41.62,29.94Z"/><path class="cls-1" d="M41.62,29.94a4.23,4.23,0,0,1,0-8.47c8,0,14.46-7.73,14.46-17.24a4.23,4.23,0,1,1,8.47,0C64.55,18.41,54.27,29.94,41.62,29.94Z"/><path class="cls-1" d="M79,29.94c-12.64,0-22.93-11.53-22.93-25.7a4.23,4.23,0,1,1,8.47,0c0,9.5,6.49,17.24,14.46,17.24A4.23,4.23,0,0,1,79,29.94Z"/><path class="cls-1" d="M78.74,29.94a4.23,4.23,0,1,1,0-8.47c8,0,14.46-7.73,14.46-17.24a4.23,4.23,0,0,1,8.47,0C101.66,18.41,91.38,29.94,78.74,29.94Z"/><path class="cls-1" d="M116.12,29.94c-12.64,0-22.93-11.53-22.93-25.7a4.23,4.23,0,0,1,8.47,0c0,9.5,6.49,17.24,14.46,17.24A4.23,4.23,0,1,1,116.12,29.94Z"/><path class="cls-1" d="M116.12,25.7"/><path class="cls-1" d="M4.23,64.54a4.23,4.23,0,1,1,0-8.47c8,0,14.46-7.73,14.46-17.24a4.23,4.23,0,0,1,8.47,0C27.16,53,16.88,64.54,4.23,64.54Z"/><path class="cls-1" d="M41.62,64.54C29,64.54,18.69,53,18.69,38.83a4.23,4.23,0,0,1,8.47,0c0,9.5,6.49,17.24,14.46,17.24A4.23,4.23,0,1,1,41.62,64.54Z"/><path class="cls-1" d="M41.62,64.54a4.23,4.23,0,0,1,0-8.47c8,0,14.46-7.73,14.46-17.24a4.23,4.23,0,1,1,8.47,0C64.55,53,54.27,64.54,41.62,64.54Z"/><path class="cls-1" d="M79,64.54c-12.64,0-22.93-11.53-22.93-25.7a4.23,4.23,0,1,1,8.47,0c0,9.5,6.49,17.24,14.46,17.24A4.23,4.23,0,0,1,79,64.54Z"/><path class="cls-1" d="M78.74,64.54a4.23,4.23,0,1,1,0-8.47c8,0,14.46-7.73,14.46-17.24a4.23,4.23,0,0,1,8.47,0C101.66,53,91.38,64.54,78.74,64.54Z"/><path class="cls-1" d="M116.12,64.54C103.48,64.54,93.2,53,93.2,38.83a4.23,4.23,0,0,1,8.47,0c0,9.5,6.49,17.24,14.46,17.24A4.23,4.23,0,1,1,116.12,64.54Z"/><path class="cls-1" d="M116.12,60.3"/><rect class="cls-2" y="81.51" width="120.36" height="6.67"/></svg>