<?xml version="1.0" encoding="utf-8"?>
<!-- Generator: Adobe Illustrator 19.1.0, SVG Export Plug-In . SVG Version: 6.00 Build 0)  -->
<svg version="1.1" id="Layer_1" xmlns="http://www.w3.org/2000/svg" xmlns:xlink="http://www.w3.org/1999/xlink" x="0px" y="0px"
	 viewBox="0 0 155.8 83.4" enable-background="new 0 0 155.8 83.4" xml:space="preserve">
<g>
	<g>
		<g>
			<path fill="#353635" d="M5.8,38.7c-3,0-5.5-2.4-5.5-5.5s2.4-5.5,5.5-5.5c10.3,0,18.7-10,18.7-22.3c0-3,2.4-5.5,5.5-5.5
				s5.5,2.4,5.5,5.5C35.4,23.8,22.1,38.7,5.8,38.7z"/>
		</g>
		<g>
			<path fill="#353635" d="M54.1,38.7c-16.3,0-29.6-14.9-29.6-33.2c0-3,2.4-5.5,5.5-5.5s5.5,2.4,5.5,5.5c0,12.3,8.4,22.3,18.7,22.3
				c3,0,5.5,2.4,5.5,5.5S57.1,38.7,54.1,38.7z"/>
		</g>
		<g>
			<path fill="#353635" d="M54.1,38.7c-3,0-5.5-2.4-5.5-5.5s2.4-5.5,5.5-5.5c10.3,0,18.7-10,18.7-22.3c0-3,2.4-5.5,5.5-5.5
				s5.5,2.4,5.5,5.5C83.7,23.8,70.4,38.7,54.1,38.7z"/>
		</g>
		<g>
			<path fill="#353635" d="M102.4,38.7C86,38.7,72.8,23.8,72.8,5.5c0-3,2.4-5.5,5.5-5.5s5.5,2.4,5.5,5.5c0,12.3,8.4,22.3,18.7,22.3
				c3,0,5.5,2.4,5.5,5.5S105.4,38.7,102.4,38.7z"/>
		</g>
	</g>
	<g>
		<g>
			<path fill="#353635" d="M102,38.7c-3,0-5.5-2.4-5.5-5.5s2.4-5.5,5.5-5.5c10.3,0,18.7-10,18.7-22.3c0-3,2.4-5.5,5.5-5.5
				c3,0,5.5,2.4,5.5,5.5C131.6,23.8,118.4,38.7,102,38.7z"/>
		</g>
		<g>
			<path fill="#353635" d="M150.3,38.7c-16.3,0-29.6-14.9-29.6-33.2c0-3,2.4-5.5,5.5-5.5c3,0,5.5,2.4,5.5,5.5
				c0,12.3,8.4,22.3,18.7,22.3c3,0,5.5,2.4,5.5,5.5S153.3,38.7,150.3,38.7z"/>
		</g>
		<g>
			<path fill="#353635" d="M150.3,33.2"/>
		</g>
	</g>
	<g>
		<g>
			<g>
				<path fill="#353635" d="M5.8,83.4c-3,0-5.5-2.4-5.5-5.5c0-3,2.4-5.5,5.5-5.5c10.3,0,18.7-10,18.7-22.3c0-3,2.4-5.5,5.5-5.5
					s5.5,2.4,5.5,5.5C35.4,68.5,22.1,83.4,5.8,83.4z"/>
			</g>
			<g>
				<path fill="#353635" d="M54.1,83.4c-16.3,0-29.6-14.9-29.6-33.2c0-3,2.4-5.5,5.5-5.5s5.5,2.4,5.5,5.5c0,12.3,8.4,22.3,18.7,22.3
					c3,0,5.5,2.4,5.5,5.5C59.5,80.9,57.1,83.4,54.1,83.4z"/>
			</g>
			<g>
				<path fill="#353635" d="M54.1,83.4c-3,0-5.5-2.4-5.5-5.5c0-3,2.4-5.5,5.5-5.5c10.3,0,18.7-10,18.7-22.3c0-3,2.4-5.5,5.5-5.5
					s5.5,2.4,5.5,5.5C83.7,68.5,70.4,83.4,54.1,83.4z"/>
			</g>
			<g>
				<path fill="#353635" d="M102.4,83.4c-16.3,0-29.6-14.9-29.6-33.2c0-3,2.4-5.5,5.5-5.5s5.5,2.4,5.5,5.5
					c0,12.3,8.4,22.3,18.7,22.3c3,0,5.5,2.4,5.5,5.5C107.8,80.9,105.4,83.4,102.4,83.4z"/>
			</g>
		</g>
		<g>
			<g>
				<path fill="#353635" d="M102,83.4c-3,0-5.5-2.4-5.5-5.5c0-3,2.4-5.5,5.5-5.5c10.3,0,18.7-10,18.7-22.3c0-3,2.4-5.5,5.5-5.5
					c3,0,5.5,2.4,5.5,5.5C131.6,68.5,118.4,83.4,102,83.4z"/>
			</g>
			<g>
				<path fill="#353635" d="M150.3,83.4c-16.3,0-29.6-14.9-29.6-33.2c0-3,2.4-5.5,5.5-5.5c3,0,5.5,2.4,5.5,5.5
					c0,12.3,8.4,22.3,18.7,22.3c3,0,5.5,2.4,5.5,5.5C155.8,80.9,153.3,83.4,150.3,83.4z"/>
			</g>
			<g>
				<path fill="#353635" d="M150.3,77.9"/>
			</g>
		</g>
	</g>
</g>
</svg>
